<?xml version="1.0" encoding="UTF-8" standalone="no"?>
<!-- Generated by graphviz version 2.28.0 (20120716.1447)
 -->

<!-- Title: _anonymous_0 Pages: 1 -->

<svg
   xmlns:dc="http://purl.org/dc/elements/1.1/"
   xmlns:cc="http://creativecommons.org/ns#"
   xmlns:rdf="http://www.w3.org/1999/02/22-rdf-syntax-ns#"
   xmlns:svg="http://www.w3.org/2000/svg"
   xmlns="http://www.w3.org/2000/svg"
   xmlns:sodipodi="http://sodipodi.sourceforge.net/DTD/sodipodi-0.dtd"
   xmlns:inkscape="http://www.inkscape.org/namespaces/inkscape"
   width="337.71429"
   height="203.67125"
   viewBox="0 0 270.17144 162.937"
   id="svg2"
   version="1.1"
   inkscape:version="0.48.3.1 r9886"
   sodipodi:docname="tr_notIn_ttr.pdf">
  <metadata
     id="metadata123">
    <rdf:RDF>
      <cc:Work
         rdf:about="">
        <dc:format>image/svg+xml</dc:format>
        <dc:type
           rdf:resource="http://purl.org/dc/dcmitype/StillImage" />
        <dc:title></dc:title>
      </cc:Work>
    </rdf:RDF>
  </metadata>
  <defs
     id="defs121" />
  <sodipodi:namedview
     pagecolor="#ffffff"
     bordercolor="#666666"
     borderopacity="1"
     objecttolerance="10"
     gridtolerance="10"
     guidetolerance="10"
     inkscape:pageopacity="0"
     inkscape:pageshadow="2"
     inkscape:window-width="1280"
     inkscape:window-height="953"
     id="namedview119"
     showgrid="false"
     inkscape:zoom="1.8330097"
     inkscape:cx="180.57307"
     inkscape:cy="124.375"
     inkscape:window-x="-3"
     inkscape:window-y="-4"
     inkscape:window-maximized="1"
     inkscape:current-layer="svg2"
     fit-margin-top="0"
     fit-margin-left="0"
     fit-margin-right="0"
     fit-margin-bottom="0" />
  <g
     class="node"
     id="node1"
     transform="translate(40.839811,162.437)">
    <title
       id="title10">0</title>
  </g>
  <text
     x="67.839813"
     y="60.136997"
     font-size="14.00"
     id="text31"
     style="font-size:14px;text-anchor:middle;font-family:'Times,serif'">$X$</text>
  <g
     class="edge"
     id="edge6"
     transform="translate(40.839811,162.437)">
    <title
       id="title34">0-&gt;1</title>
    <path
       style="fill:none;stroke:#000000"
       inkscape:connector-curvature="0"
       id="path36"
       d="m 27,-161.937 c 0,8.13 0,18.061 0,27.232" />
    <polygon
       style="fill:#000000;stroke:#000000"
       id="polygon38"
       points="27,-124.441 23.5001,-134.441 30.5001,-134.441 30.5001,-134.441 " />
  </g>
  <g
     id="g3182"
     transform="matrix(-1,0,0,1,98.218625,-39.563)">
    <polyline
       transform="translate(4,202)"
       style="fill:none;stroke:#000000"
       id="polyline15"
       points="42,-124 12,-124 " />
    <path
       style="fill:none;stroke:#000000"
       inkscape:connector-curvature="0"
       id="path17"
       d="M 16,78 C 10,78 4,84 4,90" />
    <polyline
       transform="translate(4,202)"
       style="fill:none;stroke:#000000"
       id="polyline19"
       points="0,-112 0,-100 " />
    <path
       style="fill:none;stroke:#000000"
       inkscape:connector-curvature="0"
       id="path21"
       d="m 4,102 c 0,6 6,12 12,12" />
    <polyline
       transform="translate(4,202)"
       style="fill:none;stroke:#000000"
       id="polyline23"
       points="12,-88 42,-88 " />
    <path
       style="fill:none;stroke:#000000"
       inkscape:connector-curvature="0"
       id="path25"
       d="m 46,114 c 6,0 12,-6 12,-12" />
    <polyline
       transform="translate(4,202)"
       style="fill:none;stroke:#000000"
       id="polyline27"
       points="54,-100 54,-112 " />
    <path
       style="fill:none;stroke:#000000"
       inkscape:connector-curvature="0"
       id="path29"
       d="M 58,90 C 58,84 52,78 46,78" />
    <path
       style="fill:none;stroke:#000000"
       inkscape:connector-curvature="0"
       id="path43"
       d="M 58.2408,89.257 C 68.0239,89.112 76,91.359 76,96 c 0,2.828 -2.9618,4.767 -7.4895,5.818" />
    <polygon
       transform="translate(4,202)"
       style="fill:#000000;stroke:#000000"
       id="polygon45"
       points="64.5146,-96.6683 64.5146,-96.6683 54.2408,-99.2566 63.8863,-103.64 " />
  </g>
  <text
     x="9.3652344"
     y="61.009884"
     font-size="14.00"
     id="text47"
     style="font-size:14px;text-anchor:middle;font-family:'Times,serif'">$a$</text>
  <g
     class="node"
     id="node3"
     transform="translate(40.839811,162.437)">
    <title
       id="title50">2</title>
    <polyline
       style="fill:none;stroke:#000000"
       id="polyline52"
       points="42,-36 12,-36 " />
    <path
       style="fill:none;stroke:#000000"
       inkscape:connector-curvature="0"
       id="path54"
       d="M 12,-36 C 6,-36 0,-30 0,-24" />
    <polyline
       style="fill:none;stroke:#000000"
       id="polyline56"
       points="0,-24 0,-12 " />
    <path
       style="fill:none;stroke:#000000"
       inkscape:connector-curvature="0"
       id="path58"
       d="M 0,-12 C 0,-6 6,0 12,0" />
    <polyline
       style="fill:none;stroke:#000000"
       id="polyline60"
       points="12,-0 42,-0 " />
    <path
       style="fill:none;stroke:#000000"
       inkscape:connector-curvature="0"
       id="path62"
       d="m 42,0 c 6,0 12,-6 12,-12" />
    <polyline
       style="fill:none;stroke:#000000"
       id="polyline64"
       points="54,-12 54,-24 " />
    <path
       style="fill:none;stroke:#000000"
       inkscape:connector-curvature="0"
       id="path66"
       d="m 54,-24 c 0,-6 -6,-12 -12,-12" />
    <text
       style="font-size:14px;text-anchor:middle;font-family:'Times,serif'"
       id="text68"
       font-size="14.00"
       y="-14.3"
       x="27">$0$</text>
  </g>
  <g
     class="edge"
     id="edge2"
     transform="translate(40.839811,162.437)">
    <title
       id="title71">1-&gt;2</title>
    <path
       style="fill:none;stroke:#000000"
       inkscape:connector-curvature="0"
       id="path73"
       d="m 27,-87.5966 c 0,11.8507 0,27.7797 0,41.3049" />
    <polygon
       style="fill:#000000;stroke:#000000"
       id="polygon75"
       points="27,-36.084 23.5001,-46.084 30.5001,-46.084 30.5001,-46.084 " />
    <text
       style="font-size:14px;text-anchor:middle;font-family:'Times,serif'"
       id="text77"
       font-size="14.00"
       y="-58.299999"
       x="37">$a$</text>
  </g>
  <g
     class="node"
     id="node7"
     transform="translate(40.839811,162.437)">
    <title
       id="title80">3</title>
  </g>
  <g
     class="node"
     id="node8"
     transform="translate(68.772014,189.05988)">
    <title
       id="title83">4</title>
    <polyline
       style="fill:none;stroke:#000000"
       id="polyline85"
       points="152,-124 122,-124 " />
    <path
       style="fill:none;stroke:#000000"
       inkscape:connector-curvature="0"
       id="path87"
       d="m 122,-124 c -6,0 -12,6 -12,12" />
    <polyline
       style="fill:none;stroke:#000000"
       id="polyline89"
       points="110,-112 110,-100 " />
    <path
       style="fill:none;stroke:#000000"
       inkscape:connector-curvature="0"
       id="path91"
       d="m 110,-100 c 0,6 6,12 12,12" />
    <polyline
       style="fill:none;stroke:#000000"
       id="polyline93"
       points="122,-88 152,-88 " />
    <path
       style="fill:none;stroke:#000000"
       inkscape:connector-curvature="0"
       id="path95"
       d="m 152,-88 c 6,0 12,-6 12,-12" />
    <polyline
       style="fill:none;stroke:#000000"
       id="polyline97"
       points="164,-100 164,-112 " />
    <path
       style="fill:none;stroke:#000000"
       inkscape:connector-curvature="0"
       id="path99"
       d="m 164,-112 c 0,-6 -6,-12 -12,-12" />
    <text
       style="font-size:14px;text-anchor:middle;font-family:'Times,serif'"
       id="text101"
       font-size="14.00"
       y="-102.3"
       x="137">$X$</text>
  </g>
  <g
     class="edge"
     id="edge10"
     transform="translate(68.772014,189.05988)">
    <title
       id="title104">3-&gt;4</title>
    <path
       style="fill:none;stroke:#000000"
       inkscape:connector-curvature="0"
       id="path106"
       d="m 137,-161.937 c 0,8.13 0,18.061 0,27.232" />
    <polygon
       style="fill:#000000;stroke:#000000"
       id="polygon108"
       points="140.5,-134.441 140.5,-134.441 137,-124.441 133.5,-134.441 " />
  </g>
  <g
     class="edge"
     id="edge8"
     transform="translate(68.772014,189.05988)">
    <title
       id="title111">4-&gt;4</title>
    <path
       style="fill:none;stroke:#000000"
       inkscape:connector-curvature="0"
       id="path113"
       d="m 164.241,-112.743 c 9.783,-0.145 17.759,2.102 17.759,6.743 0,2.828 -2.962,4.767 -7.49,5.818" />
    <polygon
       style="fill:#000000;stroke:#000000"
       id="polygon115"
       points="174.515,-96.6683 174.515,-96.6683 164.241,-99.2566 173.886,-103.64 " />
    <text
       style="font-size:14px;text-anchor:middle;font-family:'Times,serif'"
       id="text117"
       font-size="14.00"
       y="-102.3"
       x="192">$a$</text>
  </g>
  <text
     xml:space="preserve"
     style="font-size:12.4987011px;font-style:normal;font-variant:normal;font-weight:normal;font-stretch:normal;text-align:center;line-height:125%;letter-spacing:0px;word-spacing:0px;writing-mode:lr-tb;text-anchor:middle;fill:#000000;fill-opacity:1;stroke:none;font-family:Sans;-inkscape-font-specification:Sans"
     x="155.10051"
     y="68.242279"
     id="text3381-0"
     sodipodi:linespacing="125%"
     transform="scale(0.89077258,1.122621)"><tspan
       sodipodi:role="line"
       x="155.10051"
       y="68.242279"
       id="tspan3107-5">$\sim_{tr}$</tspan></text>
  <text
     xml:space="preserve"
     style="font-size:12.4987011px;font-style:normal;font-variant:normal;font-weight:normal;font-stretch:normal;text-align:center;line-height:125%;letter-spacing:0px;word-spacing:0px;writing-mode:lr-tb;text-anchor:middle;fill:#000000;fill-opacity:1;stroke:none;font-family:Sans;-inkscape-font-specification:Sans"
     x="156.08043"
     y="85.348129"
     id="text3381-0-4"
     sodipodi:linespacing="125%"
     transform="scale(0.89077257,1.122621)"><tspan
       sodipodi:role="line"
       x="156.08043"
       y="85.348129"
       id="tspan3107-5-1">$\nsim_{ttr}$</tspan></text>
  <text
     xml:space="preserve"
     style="font-size:12.4987011px;font-style:normal;font-variant:normal;font-weight:normal;font-stretch:normal;text-align:center;line-height:125%;letter-spacing:0px;word-spacing:0px;writing-mode:lr-tb;text-anchor:middle;fill:#000000;fill-opacity:1;stroke:none;font-family:Sans;-inkscape-font-specification:Sans"
     x="154.89981"
     y="52.295185"
     id="text3381-0-1"
     sodipodi:linespacing="125%"
     transform="scale(0.89077258,1.122621)"><tspan
       sodipodi:role="line"
       x="154.89981"
       y="52.295185"
       id="tspan3063">$\sim_{wtr}$</tspan></text>
  <text
     xml:space="preserve"
     style="font-size:12.4987011px;font-style:normal;font-variant:normal;font-weight:normal;font-stretch:normal;text-align:center;line-height:125%;letter-spacing:0px;word-spacing:0px;writing-mode:lr-tb;text-anchor:middle;fill:#000000;fill-opacity:1;stroke:none;font-family:Sans;-inkscape-font-specification:Sans"
     x="156.85962"
     y="102.05767"
     id="text3381-0-4-6"
     sodipodi:linespacing="125%"
     transform="scale(0.89077258,1.122621)"><tspan
       sodipodi:role="line"
       x="156.85962"
       y="102.05767"
       id="tspan3107-5-1-2">$\nsim_{wttr}$</tspan></text>
</svg>
