<?xml version="1.0" encoding="UTF-8" standalone="no"?>
<!-- Generated by graphviz version 2.28.0 (20120716.1447)
 -->

<!-- Title: _anonymous_0 Pages: 1 -->

<svg
   xmlns:dc="http://purl.org/dc/elements/1.1/"
   xmlns:cc="http://creativecommons.org/ns#"
   xmlns:rdf="http://www.w3.org/1999/02/22-rdf-syntax-ns#"
   xmlns:svg="http://www.w3.org/2000/svg"
   xmlns="http://www.w3.org/2000/svg"
   xmlns:sodipodi="http://sodipodi.sourceforge.net/DTD/sodipodi-0.dtd"
   xmlns:inkscape="http://www.inkscape.org/namespaces/inkscape"
   width="394.14484"
   height="313.67126"
   viewBox="0 0 315.31587 250.93701"
   id="svg2"
   version="1.1"
   inkscape:version="0.48.3.1 r9886"
   sodipodi:docname="trEq_neq_sBiSim.svg">
  <metadata
     id="metadata243">
    <rdf:RDF>
      <cc:Work
         rdf:about="">
        <dc:format>image/svg+xml</dc:format>
        <dc:type
           rdf:resource="http://purl.org/dc/dcmitype/StillImage" />
        <dc:title />
      </cc:Work>
    </rdf:RDF>
  </metadata>
  <defs
     id="defs241" />
  <sodipodi:namedview
     pagecolor="#ffffff"
     bordercolor="#666666"
     borderopacity="1"
     objecttolerance="10"
     gridtolerance="10"
     guidetolerance="10"
     inkscape:pageopacity="0"
     inkscape:pageshadow="2"
     inkscape:window-width="1280"
     inkscape:window-height="953"
     id="namedview239"
     showgrid="false"
     fit-margin-top="0"
     fit-margin-left="0"
     fit-margin-right="0"
     fit-margin-bottom="0"
     inkscape:zoom="1.8163505"
     inkscape:cx="228.02063"
     inkscape:cy="179.375"
     inkscape:window-x="-3"
     inkscape:window-y="-4"
     inkscape:window-maximized="1"
     inkscape:current-layer="svg2" />
  <g
     class="node"
     id="node1"
     transform="translate(0.5,250.437)">
    <title
       id="title10">0</title>
  </g>
  <g
     class="node"
     id="node2"
     transform="translate(0.5,250.437)">
    <title
       id="title13">1</title>
    <polyline
       style="fill:none;stroke:#000000"
       id="polyline15"
       points="91.25,-212 14.75,-212 " />
    <path
       style="fill:none;stroke:#000000"
       inkscape:connector-curvature="0"
       id="path17"
       d="m 14.75,-212 c -6,0 -12,6 -12,12" />
    <polyline
       style="fill:none;stroke:#000000"
       id="polyline19"
       points="2.75,-200 2.75,-188 " />
    <path
       style="fill:none;stroke:#000000"
       inkscape:connector-curvature="0"
       id="path21"
       d="m 2.75,-188 c 0,6 6,12 12,12" />
    <polyline
       style="fill:none;stroke:#000000"
       id="polyline23"
       points="14.75,-176 91.25,-176 " />
    <path
       style="fill:none;stroke:#000000"
       inkscape:connector-curvature="0"
       id="path25"
       d="m 91.25,-176 c 6,0 12,-6 12,-12" />
    <polyline
       style="fill:none;stroke:#000000"
       id="polyline27"
       points="103.25,-188 103.25,-200 " />
    <path
       style="fill:none;stroke:#000000"
       inkscape:connector-curvature="0"
       id="path29"
       d="m 103.25,-200 c 0,-6 -6,-12 -12,-12" />
    <text
       style="font-size:14px;text-anchor:middle;font-family:'Times,serif'"
       id="text31"
       font-size="14.00"
       y="-190.3"
       x="53">$a.b.0 + a.c.0$</text>
  </g>
  <g
     class="edge"
     id="edge10"
     transform="translate(0.5,250.437)">
    <title
       id="title34">0-&gt;1</title>
    <path
       style="fill:none;stroke:#000000"
       inkscape:connector-curvature="0"
       id="path36"
       d="m 53,-249.937 c 0,8.13 0,18.061 0,27.232" />
    <polygon
       style="fill:#000000;stroke:#000000"
       id="polygon38"
       points="53,-212.441 49.5001,-222.441 56.5001,-222.441 56.5001,-222.441 " />
  </g>
  <g
     class="node"
     id="node3"
     transform="translate(0.5,250.437)">
    <title
       id="title41">2</title>
    <polyline
       style="fill:none;stroke:#000000"
       id="polyline43"
       points="42,-124 12,-124 " />
    <path
       style="fill:none;stroke:#000000"
       inkscape:connector-curvature="0"
       id="path45"
       d="m 12,-124 c -6,0 -12,6 -12,12" />
    <polyline
       style="fill:none;stroke:#000000"
       id="polyline47"
       points="0,-112 0,-100 " />
    <path
       style="fill:none;stroke:#000000"
       inkscape:connector-curvature="0"
       id="path49"
       d="m 0,-100 c 0,6 6,12 12,12" />
    <polyline
       style="fill:none;stroke:#000000"
       id="polyline51"
       points="12,-88 42,-88 " />
    <path
       style="fill:none;stroke:#000000"
       inkscape:connector-curvature="0"
       id="path53"
       d="m 42,-88 c 6,0 12,-6 12,-12" />
    <polyline
       style="fill:none;stroke:#000000"
       id="polyline55"
       points="54,-100 54,-112 " />
    <path
       style="fill:none;stroke:#000000"
       inkscape:connector-curvature="0"
       id="path57"
       d="m 54,-112 c 0,-6 -6,-12 -12,-12" />
    <text
       style="font-size:14px;text-anchor:middle;font-family:'Times,serif'"
       id="text59"
       font-size="14.00"
       y="-102.3"
       x="27">$b.0$</text>
  </g>
  <g
     class="edge"
     id="edge2"
     transform="translate(0.5,250.437)">
    <title
       id="title62">1-&gt;2</title>
    <path
       style="fill:none;stroke:#000000"
       inkscape:connector-curvature="0"
       id="path64"
       d="m 47.7385,-175.597 c -3.6182,11.968 -8.494,28.096 -12.6088,41.706" />
    <polygon
       style="fill:#000000;stroke:#000000"
       id="polygon66"
       points="32.1649,-124.084 31.7087,-134.669 38.4091,-132.643 38.4091,-132.643 " />
    <text
       style="font-size:14px;text-anchor:middle;font-family:'Times,serif'"
       id="text68"
       font-size="14.00"
       y="-146.3"
       x="53">$a$</text>
  </g>
  <g
     class="node"
     id="node4"
     transform="translate(0.5,250.437)">
    <title
       id="title71">3</title>
    <polyline
       style="fill:none;stroke:#000000"
       id="polyline73"
       points="114,-124 84,-124 " />
    <path
       style="fill:none;stroke:#000000"
       inkscape:connector-curvature="0"
       id="path75"
       d="m 84,-124 c -6,0 -12,6 -12,12" />
    <polyline
       style="fill:none;stroke:#000000"
       id="polyline77"
       points="72,-112 72,-100 " />
    <path
       style="fill:none;stroke:#000000"
       inkscape:connector-curvature="0"
       id="path79"
       d="m 72,-100 c 0,6 6,12 12,12" />
    <polyline
       style="fill:none;stroke:#000000"
       id="polyline81"
       points="84,-88 114,-88 " />
    <path
       style="fill:none;stroke:#000000"
       inkscape:connector-curvature="0"
       id="path83"
       d="m 114,-88 c 6,0 12,-6 12,-12" />
    <polyline
       style="fill:none;stroke:#000000"
       id="polyline85"
       points="126,-100 126,-112 " />
    <path
       style="fill:none;stroke:#000000"
       inkscape:connector-curvature="0"
       id="path87"
       d="m 126,-112 c 0,-6 -6,-12 -12,-12" />
    <text
       style="font-size:14px;text-anchor:middle;font-family:'Times,serif'"
       id="text89"
       font-size="14.00"
       y="-102.3"
       x="99">$c.0$</text>
  </g>
  <g
     class="edge"
     id="edge4"
     transform="translate(0.5,250.437)">
    <title
       id="title92">1-&gt;3</title>
    <path
       style="fill:none;stroke:#000000"
       inkscape:connector-curvature="0"
       id="path94"
       d="m 62.3088,-175.597 c 6.527,12.203 15.367,28.73 22.7345,42.504" />
    <polygon
       style="fill:#000000;stroke:#000000"
       id="polygon96"
       points="89.862,-124.084 82.0592,-131.251 88.2317,-134.553 88.2317,-134.553 " />
    <text
       style="font-size:14px;text-anchor:middle;font-family:'Times,serif'"
       id="text98"
       font-size="14.00"
       y="-146.3"
       x="91">$a$</text>
  </g>
  <g
     class="node"
     id="node5"
     transform="translate(0.5,250.437)">
    <title
       id="title101">4</title>
    <polyline
       style="fill:none;stroke:#000000"
       id="polyline103"
       points="71,-36 41,-36 " />
    <path
       style="fill:none;stroke:#000000"
       inkscape:connector-curvature="0"
       id="path105"
       d="m 41,-36 c -6,0 -12,6 -12,12" />
    <polyline
       style="fill:none;stroke:#000000"
       id="polyline107"
       points="29,-24 29,-12 " />
    <path
       style="fill:none;stroke:#000000"
       inkscape:connector-curvature="0"
       id="path109"
       d="m 29,-12 c 0,6 6,12 12,12" />
    <polyline
       style="fill:none;stroke:#000000"
       id="polyline111"
       points="41,-0 71,-0 " />
    <path
       style="fill:none;stroke:#000000"
       inkscape:connector-curvature="0"
       id="path113"
       d="m 71,0 c 6,0 12,-6 12,-12" />
    <polyline
       style="fill:none;stroke:#000000"
       id="polyline115"
       points="83,-12 83,-24 " />
    <path
       style="fill:none;stroke:#000000"
       inkscape:connector-curvature="0"
       id="path117"
       d="m 83,-24 c 0,-6 -6,-12 -12,-12" />
    <text
       style="font-size:14px;text-anchor:middle;font-family:'Times,serif'"
       id="text119"
       font-size="14.00"
       y="-14.3"
       x="56">$0$</text>
  </g>
  <path
     d="m 33.3686,162.8404 c 4.0357,11.9681 9.4741,28.0955 14.0636,41.7059"
     id="path124"
     inkscape:connector-curvature="0"
     style="fill:none;stroke:#000000" />
  <polygon
     points="50.3603,-46.6782 50.3603,-46.6782 50.2391,-36.084 43.7272,-44.4414 "
     id="polygon126"
     style="fill:#000000;stroke:#000000"
     transform="translate(0.5,250.437)" />
  <text
     x="28.311607"
     y="192.13699"
     font-size="14.00"
     id="text128"
     style="font-size:14px;text-anchor:middle;font-family:'Times,serif'">$b$</text>
  <g
     class="edge"
     id="edge8"
     transform="translate(0.5,250.437)">
    <title
       id="title131">3-&gt;4</title>
    <path
       style="fill:none;stroke:#000000"
       inkscape:connector-curvature="0"
       id="path133"
       d="M 90.2983,-87.5966 C 84.1969,-75.3939 75.9335,-58.867 69.0465,-45.093" />
    <polygon
       style="fill:#000000;stroke:#000000"
       id="polygon135"
       points="64.542,-36.084 65.8837,-46.5936 72.1447,-43.463 72.1447,-43.463 " />
    <text
       style="font-size:14px;text-anchor:middle;font-family:'Times,serif'"
       id="text137"
       font-size="14.00"
       y="-58.299999"
       x="92.5">$c$</text>
  </g>
  <g
     class="node"
     id="node11"
     transform="translate(0.5,250.437)">
    <title
       id="title140">00</title>
  </g>
  <g
     class="node"
     id="node12"
     transform="translate(75.815861,250.437)">
    <title
       id="title143">5</title>
    <polyline
       style="fill:none;stroke:#000000"
       id="polyline145"
       points="227,-212 151,-212 " />
    <path
       style="fill:none;stroke:#000000"
       inkscape:connector-curvature="0"
       id="path147"
       d="m 151,-212 c -6,0 -12,6 -12,12" />
    <polyline
       style="fill:none;stroke:#000000"
       id="polyline149"
       points="139,-200 139,-188 " />
    <path
       style="fill:none;stroke:#000000"
       inkscape:connector-curvature="0"
       id="path151"
       d="m 139,-188 c 0,6 6,12 12,12" />
    <polyline
       style="fill:none;stroke:#000000"
       id="polyline153"
       points="151,-176 227,-176 " />
    <path
       style="fill:none;stroke:#000000"
       inkscape:connector-curvature="0"
       id="path155"
       d="m 227,-176 c 6,0 12,-6 12,-12" />
    <polyline
       style="fill:none;stroke:#000000"
       id="polyline157"
       points="239,-188 239,-200 " />
    <path
       style="fill:none;stroke:#000000"
       inkscape:connector-curvature="0"
       id="path159"
       d="m 239,-200 c 0,-6 -6,-12 -12,-12" />
    <text
       style="font-size:14px;text-anchor:middle;font-family:'Times,serif'"
       id="text161"
       font-size="14.00"
       y="-190.3"
       x="189">$a.(b.0 + c.0)$</text>
  </g>
  <g
     class="edge"
     id="edge18"
     transform="translate(75.815861,250.437)">
    <title
       id="title164">00-&gt;5</title>
    <path
       style="fill:none;stroke:#000000"
       inkscape:connector-curvature="0"
       id="path166"
       d="m 189,-249.937 c 0,8.13 0,18.061 0,27.232" />
    <polygon
       style="fill:#000000;stroke:#000000"
       id="polygon168"
       points="192.5,-222.441 192.5,-222.441 189,-212.441 185.5,-222.441 " />
  </g>
  <g
     class="node"
     id="node13"
     transform="translate(75.815861,250.437)">
    <title
       id="title171">6</title>
    <polyline
       style="fill:none;stroke:#000000"
       id="polyline173"
       points="217.25,-124 160.75,-124 " />
    <path
       style="fill:none;stroke:#000000"
       inkscape:connector-curvature="0"
       id="path175"
       d="m 160.75,-124 c -6,0 -12,6 -12,12" />
    <polyline
       style="fill:none;stroke:#000000"
       id="polyline177"
       points="148.75,-112 148.75,-100 " />
    <path
       style="fill:none;stroke:#000000"
       inkscape:connector-curvature="0"
       id="path179"
       d="m 148.75,-100 c 0,6 6,12 12,12" />
    <polyline
       style="fill:none;stroke:#000000"
       id="polyline181"
       points="160.75,-88 217.25,-88 " />
    <path
       style="fill:none;stroke:#000000"
       inkscape:connector-curvature="0"
       id="path183"
       d="m 217.25,-88 c 6,0 12,-6 12,-12" />
    <polyline
       style="fill:none;stroke:#000000"
       id="polyline185"
       points="229.25,-100 229.25,-112 " />
    <path
       style="fill:none;stroke:#000000"
       inkscape:connector-curvature="0"
       id="path187"
       d="m 229.25,-112 c 0,-6 -6,-12 -12,-12" />
    <text
       style="font-size:14px;text-anchor:middle;font-family:'Times,serif'"
       id="text189"
       font-size="14.00"
       y="-102.3"
       x="189">$b.0 + c.0$</text>
  </g>
  <g
     class="edge"
     id="edge12"
     transform="translate(75.815861,250.437)">
    <title
       id="title192">5-&gt;6</title>
    <path
       style="fill:none;stroke:#000000"
       inkscape:connector-curvature="0"
       id="path194"
       d="m 189,-175.597 c 0,11.851 0,27.78 0,41.305" />
    <polygon
       style="fill:#000000;stroke:#000000"
       id="polygon196"
       points="192.5,-134.084 192.5,-134.084 189,-124.084 185.5,-134.084 " />
    <text
       style="font-size:14px;text-anchor:middle;font-family:'Times,serif'"
       id="text198"
       font-size="14.00"
       y="-146.3"
       x="199">$a$</text>
  </g>
  <g
     class="node"
     id="node14"
     transform="translate(92.552719,250.437)">
    <title
       id="title201">7</title>
    <polyline
       style="fill:none;stroke:#000000"
       id="polyline203"
       points="188,-36 158,-36 " />
    <path
       style="fill:none;stroke:#000000"
       inkscape:connector-curvature="0"
       id="path205"
       d="m 158,-36 c -6,0 -12,6 -12,12" />
    <polyline
       style="fill:none;stroke:#000000"
       id="polyline207"
       points="146,-24 146,-12 " />
    <path
       style="fill:none;stroke:#000000"
       inkscape:connector-curvature="0"
       id="path209"
       d="m 146,-12 c 0,6 6,12 12,12" />
    <polyline
       style="fill:none;stroke:#000000"
       id="polyline211"
       points="158,-0 188,-0 " />
    <path
       style="fill:none;stroke:#000000"
       inkscape:connector-curvature="0"
       id="path213"
       d="m 188,0 c 6,0 12,-6 12,-12" />
    <polyline
       style="fill:none;stroke:#000000"
       id="polyline215"
       points="200,-12 200,-24 " />
    <path
       style="fill:none;stroke:#000000"
       inkscape:connector-curvature="0"
       id="path217"
       d="m 200,-24 c 0,-6 -6,-12 -12,-12" />
    <text
       style="font-size:14px;text-anchor:middle;font-family:'Times,serif'"
       id="text219"
       font-size="14.00"
       y="-14.3"
       x="173">$0$</text>
  </g>
  <g
     class="edge"
     id="edge16"
     transform="translate(95.635824,250.437)">
    <title
       id="title231">6-&gt;7</title>
    <path
       style="fill:none;stroke:#000000"
       inkscape:connector-curvature="0"
       id="path233"
       d="m 185.762,-87.5966 c -2.205,11.8507 -5.168,27.7797 -7.684,41.3049" />
    <polygon
       style="fill:#000000;stroke:#000000"
       id="polygon235"
       points="181.449,-45.2751 176.178,-36.084 174.567,-46.5555 181.449,-45.2751 " />
    <text
       style="font-size:14px;text-anchor:middle;font-family:'Times,serif'"
       id="text237"
       font-size="14.00"
       y="-58.299999"
       x="193.5">$c$</text>
  </g>
  <path
     d="m 241.90987,162.17371 c 4.0357,11.9681 9.4741,28.0955 14.0636,41.7059"
     id="path124-1"
     inkscape:connector-curvature="0"
     style="fill:none;stroke:#000000" />
  <polygon
     points="50.3603,-46.6782 50.3603,-46.6782 50.2391,-36.084 43.7272,-44.4414 "
     id="polygon126-0"
     style="fill:#000000;stroke:#000000"
     transform="translate(209.04127,249.77031)" />
  <text
     x="237.2933"
     y="191.47031"
     font-size="14.00"
     id="text128-4"
     style="font-size:14px;text-anchor:middle;font-family:'Times,serif'">$b$</text>
  <text
     xml:space="preserve"
     style="font-size:14.54100227px;font-style:normal;font-variant:normal;font-weight:normal;font-stretch:normal;text-align:center;line-height:125%;letter-spacing:0px;word-spacing:0px;writing-mode:lr-tb;text-anchor:middle;fill:#000000;fill-opacity:1;stroke:none;font-family:Sans;-inkscape-font-specification:Sans"
     x="167.207"
     y="161.94193"
     id="text3381"
     sodipodi:linespacing="125%"
     transform="scale(1.0363258,0.96494751)"><tspan
       sodipodi:role="line"
       x="167.207"
       y="161.94193"
       id="tspan3107">$\nsim$</tspan></text>
  <text
     xml:space="preserve"
     style="font-size:14.54100037px;font-style:normal;font-weight:normal;line-height:125%;letter-spacing:0px;word-spacing:0px;fill:#000000;fill-opacity:1;stroke:none;font-family:Sans"
     x="142.31514"
     y="158.37206"
     id="text3381-4"
     sodipodi:linespacing="125%"
     transform="scale(1.0363258,0.96494751)"><tspan
       sodipodi:role="line"
       id="tspan3383-1"
       x="142.31514"
       y="158.37206" /></text>
  <text
     xml:space="preserve"
     style="font-size:12.4987011px;font-style:normal;font-variant:normal;font-weight:normal;font-stretch:normal;text-align:center;line-height:125%;letter-spacing:0px;word-spacing:0px;writing-mode:lr-tb;text-anchor:middle;fill:#000000;fill-opacity:1;stroke:none;font-family:Sans;-inkscape-font-specification:Sans"
     x="190.43698"
     y="85.421692"
     id="text3381-0"
     sodipodi:linespacing="125%"
     transform="scale(0.89077258,1.122621)"><tspan
       sodipodi:role="line"
       x="190.43698"
       y="85.421692"
       id="tspan3107-5">$\sim_{tr}$</tspan></text>
  <text
     xml:space="preserve"
     style="font-size:11.57352448px;font-style:normal;font-variant:normal;font-weight:normal;font-stretch:normal;text-align:center;line-height:125%;letter-spacing:0px;word-spacing:0px;writing-mode:lr-tb;text-anchor:middle;fill:#000000;fill-opacity:1;stroke:none;font-family:Sans;-inkscape-font-specification:Sans"
     x="204.0471"
     y="59.520882"
     id="text3381-0-9"
     sodipodi:linespacing="125%"
     transform="scale(0.82483604,1.2123622)"><tspan
       sodipodi:role="line"
       x="204.0471"
       y="59.520882"
       id="tspan3107-5-8">$\sim_{wtr}$</tspan></text>
  <text
     xml:space="preserve"
     style="font-size:10.82811165px;font-style:normal;font-variant:normal;font-weight:normal;font-stretch:normal;text-align:center;line-height:125%;letter-spacing:0px;word-spacing:0px;writing-mode:lr-tb;text-anchor:middle;fill:#000000;fill-opacity:1;stroke:none;font-family:Sans;-inkscape-font-specification:Sans"
     x="224.93362"
     y="135.46452"
     id="text3381-8"
     sodipodi:linespacing="125%"
     transform="scale(0.77171104,1.2958218)"><tspan
       sodipodi:role="line"
       x="224.93362"
       y="135.46452"
       id="tspan3107-8">$\not\approx$</tspan></text>
  <text
     xml:space="preserve"
     style="font-size:10.82811165px;font-style:normal;font-variant:normal;font-weight:normal;font-stretch:normal;text-align:center;line-height:125%;letter-spacing:0px;word-spacing:0px;writing-mode:lr-tb;text-anchor:middle;fill:#000000;fill-opacity:1;stroke:none;font-family:Sans;-inkscape-font-specification:Sans"
     x="224.36287"
     y="149.56187"
     id="text3381-8-8"
     sodipodi:linespacing="125%"
     transform="scale(0.77171105,1.2958218)"><tspan
       sodipodi:role="line"
       x="224.36287"
       y="149.56187"
       id="tspan3107-8-3">$\nsim_iso$</tspan></text>
</svg>
