<?xml version="1.0" encoding="UTF-8" standalone="no"?>
<!-- Generated by graphviz version 2.28.0 (20120716.1447)
 -->

<!-- Title: _anonymous_0 Pages: 1 -->

<svg
   xmlns:dc="http://purl.org/dc/elements/1.1/"
   xmlns:cc="http://creativecommons.org/ns#"
   xmlns:rdf="http://www.w3.org/1999/02/22-rdf-syntax-ns#"
   xmlns:svg="http://www.w3.org/2000/svg"
   xmlns="http://www.w3.org/2000/svg"
   xmlns:sodipodi="http://sodipodi.sourceforge.net/DTD/sodipodi-0.dtd"
   xmlns:inkscape="http://www.inkscape.org/namespaces/inkscape"
   width="311.18839"
   height="666.27087"
   viewBox="0 0 248.95071 533.0167"
   id="svg2"
   version="1.1"
   inkscape:version="0.48.3.1 r9886"
   sodipodi:docname="wBisim_incongruent.pdf">
  <metadata
     id="metadata335">
    <rdf:RDF>
      <cc:Work
         rdf:about="">
        <dc:format>image/svg+xml</dc:format>
        <dc:type
           rdf:resource="http://purl.org/dc/dcmitype/StillImage" />
        <dc:title></dc:title>
      </cc:Work>
    </rdf:RDF>
  </metadata>
  <defs
     id="defs333" />
  <sodipodi:namedview
     pagecolor="#ffffff"
     bordercolor="#666666"
     borderopacity="1"
     objecttolerance="10"
     gridtolerance="10"
     guidetolerance="10"
     inkscape:pageopacity="0"
     inkscape:pageshadow="2"
     inkscape:window-width="1280"
     inkscape:window-height="953"
     id="namedview331"
     showgrid="false"
     fit-margin-top="0"
     fit-margin-left="0"
     fit-margin-right="0"
     fit-margin-bottom="0"
     inkscape:zoom="1.2843537"
     inkscape:cx="135.00672"
     inkscape:cy="323.55927"
     inkscape:window-x="-3"
     inkscape:window-y="-4"
     inkscape:window-maximized="1"
     inkscape:current-layer="svg2" />
  <g
     class="node"
     id="node1"
     transform="translate(4.91525,298.90413)">
    <title
       id="title10">0</title>
  </g>
  <g
     class="node"
     id="node2"
     transform="translate(22.639865,250.437)">
    <title
       id="title13">1</title>
    <polyline
       style="fill:none;stroke:#000000"
       id="polyline15"
       points="58.25,-212 11.75,-212 " />
    <path
       style="fill:none;stroke:#000000"
       inkscape:connector-curvature="0"
       id="path17"
       d="m 11.75,-212 c -6,0 -12,6 -12,12" />
    <polyline
       style="fill:none;stroke:#000000"
       id="polyline19"
       points="-0.25,-200 -0.25,-188 " />
    <path
       style="fill:none;stroke:#000000"
       inkscape:connector-curvature="0"
       id="path21"
       d="m -0.25,-188 c 0,6 6,12 12,12" />
    <polyline
       style="fill:none;stroke:#000000"
       id="polyline23"
       points="11.75,-176 58.25,-176 " />
    <path
       style="fill:none;stroke:#000000"
       inkscape:connector-curvature="0"
       id="path25"
       d="m 58.25,-176 c 6,0 12,-6 12,-12" />
    <polyline
       style="fill:none;stroke:#000000"
       id="polyline27"
       points="70.25,-188 70.25,-200 " />
    <path
       style="fill:none;stroke:#000000"
       inkscape:connector-curvature="0"
       id="path29"
       d="m 70.25,-200 c 0,-6 -6,-12 -12,-12" />
    <text
       style="font-size:14px;text-anchor:middle;font-family:'Times,serif'"
       id="text31"
       font-size="14.00"
       y="-190.3"
       x="35">$\tau.a.0$</text>
  </g>
  <g
     class="edge"
     id="edge6"
     transform="translate(22.639865,250.437)">
    <title
       id="title34">0-&gt;1</title>
    <path
       style="fill:none;stroke:#000000"
       inkscape:connector-curvature="0"
       id="path36"
       d="m 35,-249.937 c 0,8.13 0,18.061 0,27.232" />
    <polygon
       style="fill:#000000;stroke:#000000"
       id="polygon38"
       points="38.5001,-222.441 38.5001,-222.441 35,-212.441 31.5001,-222.441 " />
  </g>
  <g
     class="node"
     id="node3"
     transform="translate(22.639865,250.437)">
    <title
       id="title41">2</title>
    <polyline
       style="fill:none;stroke:#000000"
       id="polyline43"
       points="50,-124 20,-124 " />
    <path
       style="fill:none;stroke:#000000"
       inkscape:connector-curvature="0"
       id="path45"
       d="m 20,-124 c -6,0 -12,6 -12,12" />
    <polyline
       style="fill:none;stroke:#000000"
       id="polyline47"
       points="8,-112 8,-100 " />
    <path
       style="fill:none;stroke:#000000"
       inkscape:connector-curvature="0"
       id="path49"
       d="m 8,-100 c 0,6 6,12 12,12" />
    <polyline
       style="fill:none;stroke:#000000"
       id="polyline51"
       points="20,-88 50,-88 " />
    <path
       style="fill:none;stroke:#000000"
       inkscape:connector-curvature="0"
       id="path53"
       d="m 50,-88 c 6,0 12,-6 12,-12" />
    <polyline
       style="fill:none;stroke:#000000"
       id="polyline55"
       points="62,-100 62,-112 " />
    <path
       style="fill:none;stroke:#000000"
       inkscape:connector-curvature="0"
       id="path57"
       d="m 62,-112 c 0,-6 -6,-12 -12,-12" />
    <text
       style="font-size:14px;text-anchor:middle;font-family:'Times,serif'"
       id="text59"
       font-size="14.00"
       y="-102.3"
       x="35">$a.0$</text>
  </g>
  <g
     class="edge"
     id="edge2"
     transform="translate(22.639865,250.437)">
    <title
       id="title62">1-&gt;2</title>
    <path
       style="fill:none;stroke:#000000"
       inkscape:connector-curvature="0"
       id="path64"
       d="m 35,-175.597 c 0,11.851 0,27.78 0,41.305" />
    <polygon
       style="fill:#000000;stroke:#000000"
       id="polygon66"
       points="38.5001,-134.084 38.5001,-134.084 35,-124.084 31.5001,-134.084 " />
    <text
       style="font-size:14px;text-anchor:middle;font-family:'Times,serif'"
       id="text68"
       font-size="14.00"
       y="-146.3"
       x="52">$\tau$</text>
  </g>
  <g
     class="node"
     id="node4"
     transform="translate(22.639865,250.437)">
    <title
       id="title71">3</title>
    <polyline
       style="fill:none;stroke:#000000"
       id="polyline73"
       points="50,-36 20,-36 " />
    <path
       style="fill:none;stroke:#000000"
       inkscape:connector-curvature="0"
       id="path75"
       d="m 20,-36 c -6,0 -12,6 -12,12" />
    <polyline
       style="fill:none;stroke:#000000"
       id="polyline77"
       points="8,-24 8,-12 " />
    <path
       style="fill:none;stroke:#000000"
       inkscape:connector-curvature="0"
       id="path79"
       d="M 8,-12 C 8,-6 14,0 20,0" />
    <polyline
       style="fill:none;stroke:#000000"
       id="polyline81"
       points="20,-0 50,-0 " />
    <path
       style="fill:none;stroke:#000000"
       inkscape:connector-curvature="0"
       id="path83"
       d="m 50,0 c 6,0 12,-6 12,-12" />
    <polyline
       style="fill:none;stroke:#000000"
       id="polyline85"
       points="62,-12 62,-24 " />
    <path
       style="fill:none;stroke:#000000"
       inkscape:connector-curvature="0"
       id="path87"
       d="m 62,-24 c 0,-6 -6,-12 -12,-12" />
    <text
       style="font-size:14px;text-anchor:middle;font-family:'Times,serif'"
       id="text89"
       font-size="14.00"
       y="-14.3"
       x="35">$0$</text>
  </g>
  <g
     class="edge"
     id="edge4"
     transform="translate(22.639865,250.437)">
    <title
       id="title92">2-&gt;3</title>
    <path
       style="fill:none;stroke:#000000"
       inkscape:connector-curvature="0"
       id="path94"
       d="m 35,-87.5966 c 0,11.8507 0,27.7797 0,41.3049" />
    <polygon
       style="fill:#000000;stroke:#000000"
       id="polygon96"
       points="38.5001,-46.084 38.5001,-46.084 35,-36.084 31.5001,-46.084 " />
    <text
       style="font-size:14px;text-anchor:middle;font-family:'Times,serif'"
       id="text98"
       font-size="14.00"
       y="-58.299999"
       x="45">$a$</text>
  </g>
  <g
     class="node"
     id="node8"
     transform="translate(4.91525,298.90413)">
    <title
       id="title101">32</title>
  </g>
  <g
     class="node"
     id="node9"
     transform="translate(94.481814,306.27185)">
    <title
       id="title104">4</title>
    <polyline
       style="fill:none;stroke:#000000"
       id="polyline106"
       points="131,-212 101,-212 " />
    <path
       style="fill:none;stroke:#000000"
       inkscape:connector-curvature="0"
       id="path108"
       d="m 101,-212 c -6,0 -12,6 -12,12" />
    <polyline
       style="fill:none;stroke:#000000"
       id="polyline110"
       points="89,-200 89,-188 " />
    <path
       style="fill:none;stroke:#000000"
       inkscape:connector-curvature="0"
       id="path112"
       d="m 89,-188 c 0,6 6,12 12,12" />
    <polyline
       style="fill:none;stroke:#000000"
       id="polyline114"
       points="101,-176 131,-176 " />
    <path
       style="fill:none;stroke:#000000"
       inkscape:connector-curvature="0"
       id="path116"
       d="m 131,-176 c 6,0 12,-6 12,-12" />
    <polyline
       style="fill:none;stroke:#000000"
       id="polyline118"
       points="143,-188 143,-200 " />
    <path
       style="fill:none;stroke:#000000"
       inkscape:connector-curvature="0"
       id="path120"
       d="m 143,-200 c 0,-6 -6,-12 -12,-12" />
    <text
       style="font-size:14px;text-anchor:middle;font-family:'Times,serif'"
       id="text122"
       font-size="14.00"
       y="-190.3"
       x="116">$a.0$</text>
  </g>
  <g
     class="edge"
     id="edge10"
     transform="translate(94.481814,306.27185)">
    <title
       id="title125">32-&gt;4</title>
    <path
       style="fill:none;stroke:#000000"
       inkscape:connector-curvature="0"
       id="path127"
       d="m 116,-249.937 c 0,8.13 0,18.061 0,27.232" />
    <polygon
       style="fill:#000000;stroke:#000000"
       id="polygon129"
       points="116,-212.441 112.5,-222.441 119.5,-222.441 119.5,-222.441 " />
  </g>
  <g
     class="node"
     id="node10"
     transform="translate(94.481814,306.27185)">
    <title
       id="title132">5</title>
    <polyline
       style="fill:none;stroke:#000000"
       id="polyline134"
       points="131,-124 101,-124 " />
    <path
       style="fill:none;stroke:#000000"
       inkscape:connector-curvature="0"
       id="path136"
       d="m 101,-124 c -6,0 -12,6 -12,12" />
    <polyline
       style="fill:none;stroke:#000000"
       id="polyline138"
       points="89,-112 89,-100 " />
    <path
       style="fill:none;stroke:#000000"
       inkscape:connector-curvature="0"
       id="path140"
       d="m 89,-100 c 0,6 6,12 12,12" />
    <polyline
       style="fill:none;stroke:#000000"
       id="polyline142"
       points="101,-88 131,-88 " />
    <path
       style="fill:none;stroke:#000000"
       inkscape:connector-curvature="0"
       id="path144"
       d="m 131,-88 c 6,0 12,-6 12,-12" />
    <polyline
       style="fill:none;stroke:#000000"
       id="polyline146"
       points="143,-100 143,-112 " />
    <path
       style="fill:none;stroke:#000000"
       inkscape:connector-curvature="0"
       id="path148"
       d="m 143,-112 c 0,-6 -6,-12 -12,-12" />
    <text
       style="font-size:14px;text-anchor:middle;font-family:'Times,serif'"
       id="text150"
       font-size="14.00"
       y="-102.3"
       x="116">$0$</text>
  </g>
  <g
     class="edge"
     id="edge8"
     transform="translate(94.481814,306.27185)">
    <title
       id="title153">4-&gt;5</title>
    <path
       style="fill:none;stroke:#000000"
       inkscape:connector-curvature="0"
       id="path155"
       d="m 116,-175.597 c 0,11.851 0,27.78 0,41.305" />
    <polygon
       style="fill:#000000;stroke:#000000"
       id="polygon157"
       points="116,-124.084 112.5,-134.084 119.5,-134.084 119.5,-134.084 " />
    <text
       style="font-size:14px;text-anchor:middle;font-family:'Times,serif'"
       id="text159"
       font-size="14.00"
       y="-146.3"
       x="126">$a$</text>
  </g>
  <g
     class="node"
     id="node13"
     transform="translate(4.91525,298.90413)">
    <title
       id="title162">6</title>
  </g>
  <g
     class="node"
     id="node21"
     transform="translate(4.91525,298.90413)">
    <title
       id="title262">10</title>
  </g>
  <g
     class="node"
     id="node22"
     transform="translate(-121.5493,574.25697)">
    <title
       id="title265">11</title>
    <polyline
       style="fill:none;stroke:#000000"
       id="polyline267"
       points="358,-212 302,-212 " />
    <path
       style="fill:none;stroke:#000000"
       inkscape:connector-curvature="0"
       id="path269"
       d="m 302,-212 c -6,0 -12,6 -12,12" />
    <polyline
       style="fill:none;stroke:#000000"
       id="polyline271"
       points="290,-200 290,-188 " />
    <path
       style="fill:none;stroke:#000000"
       inkscape:connector-curvature="0"
       id="path273"
       d="m 290,-188 c 0,6 6,12 12,12" />
    <polyline
       style="fill:none;stroke:#000000"
       id="polyline275"
       points="302,-176 358,-176 " />
    <path
       style="fill:none;stroke:#000000"
       inkscape:connector-curvature="0"
       id="path277"
       d="m 358,-176 c 6,0 12,-6 12,-12" />
    <polyline
       style="fill:none;stroke:#000000"
       id="polyline279"
       points="370,-188 370,-200 " />
    <path
       style="fill:none;stroke:#000000"
       inkscape:connector-curvature="0"
       id="path281"
       d="m 370,-200 c 0,-6 -6,-12 -12,-12" />
    <text
       style="font-size:14px;text-anchor:middle;font-family:'Times,serif'"
       id="text283"
       font-size="14.00"
       y="-190.3"
       x="330">$b.0 + a.0$</text>
  </g>
  <g
     class="edge"
     id="edge24"
     transform="translate(-121.5493,574.25697)">
    <title
       id="title286">10-&gt;11</title>
    <path
       style="fill:none;stroke:#000000"
       inkscape:connector-curvature="0"
       id="path288"
       d="m 330,-249.937 c 0,8.13 0,18.061 0,27.232" />
    <polygon
       style="fill:#000000;stroke:#000000"
       id="polygon290"
       points="330,-212.441 326.5,-222.441 333.5,-222.441 333.5,-222.441 " />
  </g>
  <g
     class="node"
     id="node23"
     transform="translate(-121.5493,574.25697)">
    <title
       id="title293">12</title>
    <polyline
       style="fill:none;stroke:#000000"
       id="polyline295"
       points="344,-124 314,-124 " />
    <path
       style="fill:none;stroke:#000000"
       inkscape:connector-curvature="0"
       id="path297"
       d="m 314,-124 c -6,0 -12,6 -12,12" />
    <polyline
       style="fill:none;stroke:#000000"
       id="polyline299"
       points="302,-112 302,-100 " />
    <path
       style="fill:none;stroke:#000000"
       inkscape:connector-curvature="0"
       id="path301"
       d="m 302,-100 c 0,6 6,12 12,12" />
    <polyline
       style="fill:none;stroke:#000000"
       id="polyline303"
       points="314,-88 344,-88 " />
    <path
       style="fill:none;stroke:#000000"
       inkscape:connector-curvature="0"
       id="path305"
       d="m 344,-88 c 6,0 12,-6 12,-12" />
    <polyline
       style="fill:none;stroke:#000000"
       id="polyline307"
       points="356,-100 356,-112 " />
    <path
       style="fill:none;stroke:#000000"
       inkscape:connector-curvature="0"
       id="path309"
       d="m 356,-112 c 0,-6 -6,-12 -12,-12" />
    <text
       style="font-size:14px;text-anchor:middle;font-family:'Times,serif'"
       id="text311"
       font-size="14.00"
       y="-102.3"
       x="329">$0$</text>
  </g>
  <path
     d="m 193.7397,398.33197 c -3.777,5.385 -7.326,11.591 -9.289,17.925 -2.604,8.402 -0.487,17.242 3.336,25.158"
     id="path316"
     inkscape:connector-curvature="0"
     style="fill:none;stroke:#000000" />
  <polygon
     points="314.428,-124.054 306.386,-130.952 312.443,-134.461 312.443,-134.461 "
     id="polygon318"
     style="fill:#000000;stroke:#000000"
     transform="translate(-121.5493,574.25697)" />
  <text
     x="237.39886"
     y="427.02264"
     font-size="14.00"
     id="text320"
     style="font-size:14px;text-anchor:middle;font-family:'Times,serif'">$a$</text>
  <g
     id="g3543"
     transform="matrix(-1,0,0,1,454.15386,1.4387217)">
    <g
       id="g3540">
      <path
         d="m 237.37331,396.67404 c -3.777,5.385 -7.326,11.591 -9.289,17.925 -2.604,8.402 -0.487,17.242 3.336,25.158"
         id="path316-5"
         inkscape:connector-curvature="0"
         style="fill:none;stroke:#000000" />
    </g>
    <polygon
       transform="translate(-77.915686,572.59904)"
       style="fill:#000000;stroke:#000000"
       id="polygon318-2"
       points="312.443,-134.461 312.443,-134.461 314.428,-124.054 306.386,-130.952 " />
  </g>
  <text
     x="172.97415"
     y="426.79428"
     font-size="14.00"
     id="text320-3"
     style="font-size:14px;text-anchor:middle;font-family:'Times,serif'">$b$</text>
  <g
     class="node"
     id="node14"
     transform="translate(-166.5,531.89381)">
    <title
       id="title165">7</title>
    <polyline
       style="fill:none;stroke:#000000"
       id="polyline167"
       points="259,-212 179,-212 " />
    <path
       style="fill:none;stroke:#000000"
       inkscape:connector-curvature="0"
       id="path169"
       d="m 179,-212 c -6,0 -12,6 -12,12" />
    <polyline
       style="fill:none;stroke:#000000"
       id="polyline171"
       points="167,-200 167,-188 " />
    <path
       style="fill:none;stroke:#000000"
       inkscape:connector-curvature="0"
       id="path173"
       d="m 167,-188 c 0,6 6,12 12,12" />
    <polyline
       style="fill:none;stroke:#000000"
       id="polyline175"
       points="179,-176 259,-176 " />
    <path
       style="fill:none;stroke:#000000"
       inkscape:connector-curvature="0"
       id="path177"
       d="m 259,-176 c 6,0 12,-6 12,-12" />
    <polyline
       style="fill:none;stroke:#000000"
       id="polyline179"
       points="271,-188 271,-200 " />
    <path
       style="fill:none;stroke:#000000"
       inkscape:connector-curvature="0"
       id="path181"
       d="m 271,-200 c 0,-6 -6,-12 -12,-12" />
    <text
       style="font-size:14px;text-anchor:middle;font-family:'Times,serif'"
       id="text183"
       font-size="14.00"
       y="-190.3"
       x="219">$b.0 + \tau.a.0$</text>
  </g>
  <g
     class="edge"
     id="edge18"
     transform="translate(-166.5,531.89381)">
    <title
       id="title186">6-&gt;7</title>
    <path
       style="fill:none;stroke:#000000"
       inkscape:connector-curvature="0"
       id="path188"
       d="m 219,-249.937 c 0,8.13 0,18.061 0,27.232" />
    <polygon
       style="fill:#000000;stroke:#000000"
       id="polygon190"
       points="222.5,-222.441 222.5,-222.441 219,-212.441 215.5,-222.441 " />
  </g>
  <text
     x="81.608055"
     y="430.83957"
     font-size="14.00"
     id="text211"
     style="font-size:14px;text-anchor:middle;font-family:'Times,serif'">$a.0$</text>
  <text
     x="85.889832"
     y="381.23364"
     font-size="14.00"
     id="text220"
     style="font-size:14px;text-anchor:middle;font-family:'Times,serif'">$\tau$</text>
  <g
     class="node"
     id="node16"
     transform="translate(-193.2839,532.51669)">
    <title
       id="title223">9</title>
    <polyline
       style="fill:none;stroke:#000000"
       id="polyline225"
       points="248,-36 218,-36 " />
    <path
       style="fill:none;stroke:#000000"
       inkscape:connector-curvature="0"
       id="path227"
       d="m 218,-36 c -6,0 -12,6 -12,12" />
    <polyline
       style="fill:none;stroke:#000000"
       id="polyline229"
       points="206,-24 206,-12 " />
    <path
       style="fill:none;stroke:#000000"
       inkscape:connector-curvature="0"
       id="path231"
       d="m 206,-12 c 0,6 6,12 12,12" />
    <polyline
       style="fill:none;stroke:#000000"
       id="polyline233"
       points="218,-0 248,-0 " />
    <path
       style="fill:none;stroke:#000000"
       inkscape:connector-curvature="0"
       id="path235"
       d="m 248,0 c 6,0 12,-6 12,-12" />
    <polyline
       style="fill:none;stroke:#000000"
       id="polyline237"
       points="260,-12 260,-24 " />
    <path
       style="fill:none;stroke:#000000"
       inkscape:connector-curvature="0"
       id="path239"
       d="m 260,-24 c 0,-6 -6,-12 -12,-12" />
    <text
       style="font-size:14px;text-anchor:middle;font-family:'Times,serif'"
       id="text241"
       font-size="14.00"
       y="-14.3"
       x="233">$0$</text>
  </g>
  <text
     x="16.802963"
     y="432.08533"
     font-size="14.00"
     id="text250"
     style="font-size:14px;text-anchor:middle;font-family:'Times,serif'">$b$</text>
  <g
     id="g3675"
     transform="matrix(-1,0,0,1,102.35299,8.90413)">
    <polyline
       transform="translate(-167.41525,522.98968)"
       style="fill:none;stroke:#000000"
       id="polyline195"
       points="203,-124 173,-124 " />
    <path
       style="fill:none;stroke:#000000"
       inkscape:connector-curvature="0"
       id="path197"
       d="m 5.58475,398.98968 c -6,0 -12,6 -12,12" />
    <polyline
       transform="translate(-167.41525,522.98968)"
       style="fill:none;stroke:#000000"
       id="polyline199"
       points="161,-112 161,-100 " />
    <path
       style="fill:none;stroke:#000000"
       inkscape:connector-curvature="0"
       id="path201"
       d="m -6.41525,422.98968 c 0,6 6,12 12,12" />
    <polyline
       transform="translate(-167.41525,522.98968)"
       style="fill:none;stroke:#000000"
       id="polyline203"
       points="173,-88 203,-88 " />
    <path
       style="fill:none;stroke:#000000"
       inkscape:connector-curvature="0"
       id="path205"
       d="m 35.58475,434.98968 c 6,0 12,-6 12,-12" />
    <polyline
       transform="translate(-167.41525,522.98968)"
       style="fill:none;stroke:#000000"
       id="polyline207"
       points="215,-100 215,-112 " />
    <path
       style="fill:none;stroke:#000000"
       inkscape:connector-curvature="0"
       id="path209"
       d="m 47.58475,410.98968 c 0,-6 -6,-12 -12,-12" />
    <path
       style="fill:none;stroke:#000000"
       inkscape:connector-curvature="0"
       id="path216"
       d="m 43.11175,347.23068 c -2.589,5.594 -5.33,11.876 -7.527,17.759 -2.874,7.695 -5.562,16.204 -7.847,24.03" />
    <polygon
       transform="translate(-167.41525,522.98968)"
       style="fill:#000000;stroke:#000000"
       id="polygon218"
       points="198.481,-132.876 192.4,-124.2 191.743,-134.774 198.481,-132.876 " />
    <path
       style="fill:none;stroke:#000000"
       inkscape:connector-curvature="0"
       id="path246"
       d="m 62.46075,347.15568 c 2.904,5.486 5.645,11.724 7.124,17.834 9.167,37.867 5.186,83.2308 0.992,111.5906" />
    <polygon
       transform="translate(-167.41525,522.98968)"
       style="fill:#000000;stroke:#000000"
       id="polygon248"
       points="241.431,-45.7485 236.401,-36.4238 234.518,-46.85 241.431,-45.7485 " />
    <path
       style="fill:none;stroke:#000000"
       inkscape:connector-curvature="0"
       id="path255"
       d="m 29.69075,435.39308 c 6.386,12.2027 15.033,28.7296 22.241,42.5036" />
    <polygon
       transform="translate(-167.41525,522.98968)"
       style="fill:#000000;stroke:#000000"
       id="polygon257"
       points="222.526,-46.567 224.061,-36.084 216.323,-43.3217 222.526,-46.567 " />
  </g>
  <text
     x="74.072037"
     y="475.46246"
     font-size="14.00"
     id="text259"
     style="font-size:14px;text-anchor:middle;font-family:'Times,serif'">$a$</text>
  <text
     xml:space="preserve"
     style="font-size:8.62228966px;font-style:normal;font-variant:normal;font-weight:normal;font-stretch:normal;text-align:center;line-height:125%;letter-spacing:0px;word-spacing:0px;writing-mode:lr-tb;text-anchor:middle;fill:#000000;fill-opacity:1;stroke:none;font-family:Sans;-inkscape-font-specification:Sans"
     x="224.35506"
     y="76.760712"
     id="text3381-0"
     sodipodi:linespacing="125%"
     transform="scale(0.61450374,1.6273294)"><tspan
       sodipodi:role="line"
       x="224.35506"
       y="76.760712"
       id="tspan3107-5">$\approx$</tspan></text>
  <text
     xml:space="preserve"
     style="font-size:5.23310471px;font-style:normal;font-variant:normal;font-weight:normal;font-stretch:normal;text-align:center;line-height:125%;letter-spacing:0px;word-spacing:0px;writing-mode:lr-tb;text-anchor:middle;fill:#000000;fill-opacity:1;stroke:none;font-family:Sans;-inkscape-font-specification:Sans"
     x="365.93732"
     y="103.06679"
     id="text3381-0-3"
     sodipodi:linespacing="125%"
     transform="scale(0.37295924,2.6812582)"><tspan
       sodipodi:role="line"
       x="365.93732"
       y="103.06679"
       id="tspan3107-5-3">\begin{sideways}$ \nLeftarrow $\end{sideways}</tspan></text>
  <text
     xml:space="preserve"
     style="font-size:8.62228966px;font-style:normal;font-variant:normal;font-weight:normal;font-stretch:normal;text-align:center;line-height:125%;letter-spacing:0px;word-spacing:0px;writing-mode:lr-tb;text-anchor:middle;fill:#000000;fill-opacity:1;stroke:none;font-family:Sans;-inkscape-font-specification:Sans"
     x="223.89482"
     y="245.94214"
     id="text3381-0-7"
     sodipodi:linespacing="125%"
     transform="scale(0.61450373,1.6273294)"><tspan
       sodipodi:role="line"
       x="223.89482"
       y="245.94214"
       id="tspan3107-5-2">$\approx$</tspan></text>
</svg>
